<?xml version="1.0" standalone="no"?><!DOCTYPE svg PUBLIC "-//W3C//DTD SVG 1.1//EN" "http://www.w3.org/Graphics/SVG/1.1/DTD/svg11.dtd"><svg class="icon" width="100px" height="100px" viewBox="0 0 1024 1024" version="1.1" xmlns="http://www.w3.org/2000/svg"><path d="M768 1020H213.6c-8.8 0-16-7.2-16-16v-120c0-8.8 7.2-16 16-16H768c8.8 0 16 7.2 16 16v120c0 8.8-7.2 16-16 16z m-538.4-32H752v-88H229.6v88z"  /><path d="M560.8 900H442.4c-8.8 0-16-7.2-16-16v-600c0-8.8 7.2-16 16-16h118.4c8.8 0 16 7.2 16 16v600.8c0 8-7.2 15.2-16 15.2z m-103.2-31.2h87.2V300H457.6v568.8zM560.8 216.8H442.4c-4.8 0-9.6-2.4-12-5.6-3.2-4-4-8.8-3.2-13.6l39.2-180.8c1.6-7.2 8-12.8 15.2-12.8h40c7.2 0 13.6 5.6 15.2 12.8L576 197.6c0.8 4.8 0 9.6-3.2 13.6-3.2 3.2-7.2 5.6-12 5.6z m-99.2-32h79.2l-32-148.8h-14.4l-32.8 148.8z"  /><path d="M873.6 300h-744c-8.8 0-16-7.2-16-16V200.8c0-8.8 7.2-16 16-16h744c8.8 0 16 7.2 16 16v83.2c0 8.8-7.2 16-16 16z m-728.8-32h712v-51.2h-712v51.2z"  /><path d="M873.6 216.8c-2.4 0-4.8-0.8-7.2-1.6L517.6 36h-32L136.8 215.2c-8 4-17.6 0.8-21.6-7.2s-0.8-17.6 7.2-21.6L474.4 5.6c2.4-0.8 4.8-1.6 7.2-1.6h40c2.4 0 4.8 0.8 7.2 1.6l352 180.8c8 4 11.2 13.6 7.2 21.6-3.2 5.6-8.8 8.8-14.4 8.8zM873.6 430.4h-64.8c-8.8 0-16-7.2-16-16V284c0-8.8 7.2-16 16-16h64.8c8.8 0 16 7.2 16 16v130.4c0 8.8-7.2 16-16 16z m-49.6-32h33.6V300H824v98.4z"  /><path d="M894.4 565.6H787.2c-8.8 0-16-7.2-16-16v-136c0-8.8 7.2-16 16-16h108c8.8 0 16 7.2 16 16v136c-0.8 9.6-8 16-16.8 16z m-91.2-31.2h76v-104h-76v104z"  /><path d="M840.8 724.8c-27.2 0-49.6-22.4-49.6-49.6 0-8.8 7.2-16 16-16s16 7.2 16 16c0 9.6 8 17.6 17.6 17.6 9.6 0 17.6-8 17.6-17.6 0-9.6-8-17.6-17.6-17.6-8.8 0-16-7.2-16-16V558.4c0-8.8 7.2-16 16-16s16 7.2 16 16v70.4c19.2 6.4 33.6 24.8 33.6 47.2 0 26.4-22.4 48.8-49.6 48.8zM447.2 490.4c-2.4 0-4.8-0.8-5.6-2.4-3.2-3.2-2.4-8 0.8-11.2l107.2-93.6-108-93.6c-3.2-3.2-4-8-0.8-11.2 3.2-3.2 8-4 11.2-0.8l113.6 99.2c1.6 1.6 2.4 4 2.4 5.6 0 2.4-0.8 4.8-2.4 5.6L452 488c-1.6 1.6-3.2 2.4-4.8 2.4z"  /><path d="M447.2 688.8c-2.4 0-4.8-0.8-5.6-2.4-3.2-3.2-2.4-8 0.8-11.2l107.2-93.6L441.6 488c-3.2-3.2-4-8-0.8-11.2 3.2-3.2 8-4 11.2-0.8l113.6 99.2c1.6 1.6 2.4 4 2.4 5.6 0 2.4-0.8 4.8-2.4 5.6L452 686.4c-1.6 1.6-3.2 2.4-4.8 2.4z"  /><path d="M447.2 887.2c-2.4 0-4.8-0.8-5.6-2.4-3.2-3.2-2.4-8 0.8-11.2l107.2-93.6-108-93.6c-3.2-3.2-4-8-0.8-11.2 3.2-3.2 8-4 11.2-0.8l113.6 99.2c1.6 1.6 2.4 4 2.4 5.6 0 2.4-0.8 4.8-2.4 5.6l-113.6 99.2c-1.6 2.4-3.2 3.2-4.8 3.2zM315.2 292c-1.6 0-4-0.8-5.6-2.4l-88-78.4-88 78.4c-3.2 3.2-8 2.4-11.2-0.8-3.2-3.2-2.4-8 0.8-11.2L216 194.4c3.2-2.4 7.2-2.4 10.4 0L320 277.6c3.2 3.2 3.2 8 0.8 11.2-1.6 1.6-3.2 3.2-5.6 3.2z"  /><path d="M500.8 292c-1.6 0-4-0.8-5.6-2.4l-88-78.4-88 78.4c-3.2 3.2-8 2.4-11.2-0.8-3.2-3.2-2.4-8 0.8-11.2l92.8-83.2c3.2-2.4 7.2-2.4 10.4 0l92.8 83.2c3.2 3.2 3.2 8 0.8 11.2 0 1.6-2.4 3.2-4.8 3.2z"  /><path d="M686.4 292c-1.6 0-4-0.8-5.6-2.4l-88-78.4-88 78.4c-3.2 3.2-8 2.4-11.2-0.8-3.2-3.2-2.4-8 0.8-11.2l92.8-83.2c3.2-2.4 7.2-2.4 10.4 0l92.8 83.2c3.2 3.2 3.2 8 0.8 11.2 0 1.6-2.4 3.2-4.8 3.2z"  /><path d="M872.8 292c-1.6 0-4-0.8-5.6-2.4l-88-78.4-88 78.4c-3.2 3.2-8 2.4-11.2-0.8-3.2-3.2-2.4-8 0.8-11.2l92.8-83.2c3.2-2.4 7.2-2.4 10.4 0l92.8 83.2c3.2 3.2 3.2 8 0.8 11.2-0.8 1.6-3.2 3.2-4.8 3.2z"  /></svg>